<svg width="133" height="20" viewBox="0 0 133 20" fill="none" xmlns="http://www.w3.org/2000/svg">
<path d="M34.596 14L32.532 11.072C33.72 10.7 34.524 9.74 34.524 8.492C34.524 6.884 33.204 5.756 31.44 5.756H27.852V14H29.352V11.228H30.948L32.892 14H34.596ZM29.352 7.136H31.272C32.292 7.136 33 7.652 33 8.492C33 9.332 32.292 9.848 31.272 9.848H29.352V7.136ZM38.7233 12.848C37.8353 12.848 37.1873 12.248 37.0073 11.396H41.6873C41.6873 9.104 40.5713 7.652 38.6513 7.652C36.8873 7.652 35.4953 9.02 35.4953 10.88C35.4953 12.788 36.9593 14.144 38.7353 14.144C39.6353 14.144 40.7153 13.76 41.2553 13.184L40.3313 12.224C39.9833 12.584 39.2993 12.848 38.7233 12.848ZM38.7113 8.948C39.5873 8.948 40.1153 9.5 40.2833 10.28H37.0193C37.2353 9.464 37.8953 8.948 38.7113 8.948ZM44.8283 7.28C44.8283 6.86 45.0923 6.56 45.4403 6.56C45.6923 6.56 45.9203 6.656 46.0523 6.788L46.4723 5.852C46.1243 5.552 45.6203 5.36 45.1523 5.36C44.1203 5.36 43.4003 6.104 43.4003 7.148V7.796H42.5003V9.008H43.4003V14H44.8283V9.008H46.2323V7.796H44.8283V7.28ZM50.2898 12.848C49.4018 12.848 48.7538 12.248 48.5738 11.396H53.2538C53.2538 9.104 52.1378 7.652 50.2178 7.652C48.4538 7.652 47.0618 9.02 47.0618 10.88C47.0618 12.788 48.5258 14.144 50.3018 14.144C51.2018 14.144 52.2818 13.76 52.8218 13.184L51.8978 12.224C51.5498 12.584 50.8658 12.848 50.2898 12.848ZM50.2778 8.948C51.1538 8.948 51.6818 9.5 51.8498 10.28H48.5858C48.8018 9.464 49.4618 8.948 50.2778 8.948ZM56.0228 8.996V7.796H54.5588V14H56.0228V10.868C56.0228 9.692 56.9108 8.9 58.2428 8.9V7.652C57.2228 7.652 56.4188 8.168 56.0228 8.996ZM69.6499 13.592C69.1579 13.076 68.7139 12.62 68.3299 12.212C68.7379 11.648 69.1099 10.988 69.4699 10.256L68.3539 9.728C68.1259 10.316 67.8379 10.868 67.5139 11.348C66.9259 10.724 66.4699 10.22 66.0499 9.728C67.2979 9.164 67.9579 8.648 67.9579 7.688C67.9579 6.548 67.0339 5.66 65.7619 5.66C64.4779 5.66 63.5059 6.572 63.5059 7.7C63.5059 8.312 63.6739 8.78 64.1299 9.416C62.8699 9.992 62.3179 10.7 62.3179 11.768C62.3179 13.256 63.4699 14.144 65.0299 14.144C65.9899 14.144 66.7819 13.796 67.4659 13.184L68.4019 14.156L69.6499 13.592ZM65.7859 6.752C66.2899 6.752 66.6619 7.16 66.6619 7.7C66.6619 8.288 66.2899 8.564 65.3779 8.936C64.9939 8.468 64.8139 8.108 64.8139 7.7C64.8139 7.124 65.2339 6.752 65.7859 6.752ZM65.1739 12.98C64.4179 12.98 63.7699 12.5 63.7699 11.696C63.7699 11.108 64.1179 10.664 64.8019 10.292C65.2699 10.844 65.8459 11.492 66.6619 12.344C66.1939 12.74 65.7019 12.98 65.1739 12.98ZM80.4857 7.124V5.756H74.2817V14H80.4857V12.632H75.7817V10.484H80.0417V9.116H75.7817V7.124H80.4857ZM84.5743 7.652C83.7943 7.652 82.9783 7.868 82.1023 8.3L82.6063 9.32C83.1343 9.056 83.6983 8.852 84.2863 8.852C85.4143 8.852 85.8103 9.548 85.8103 10.268V10.436C85.2463 10.22 84.6343 10.1 84.0703 10.1C82.6783 10.1 81.5383 10.94 81.5383 12.164C81.5383 13.364 82.5343 14.144 83.8543 14.144C84.5743 14.144 85.3543 13.832 85.8103 13.256V14H87.2383V10.268C87.2383 8.696 86.2183 7.652 84.5743 7.652ZM84.1783 13.076C83.4823 13.076 82.9663 12.704 82.9663 12.116C82.9663 11.528 83.5543 11.12 84.2863 11.12C84.8383 11.12 85.3543 11.204 85.8103 11.36V12.056C85.6423 12.716 84.8863 13.076 84.1783 13.076ZM90.3235 8.996V7.796H88.8595V14H90.3235V10.868C90.3235 9.692 91.2115 8.9 92.5435 8.9V7.652C91.5235 7.652 90.7195 8.168 90.3235 8.996ZM97.0122 7.652C96.1962 7.652 95.4762 8.048 95.0922 8.624V7.796H93.6282V14H95.0922V10.076C95.1882 9.416 95.8242 8.9 96.5922 8.9C97.3602 8.9 97.9002 9.5 97.9002 10.34V14H99.3162V10.052C99.3162 8.648 98.3682 7.652 97.0122 7.652ZM109.541 7.5957L109.248 8.67969H103.74L104.039 7.5957H109.541ZM106.799 14L103.91 10.5898L103.904 9.65234H105.299C105.639 9.65234 105.918 9.58984 106.137 9.46484C106.359 9.33594 106.525 9.16211 106.635 8.94336C106.748 8.72461 106.805 8.47852 106.805 8.20508C106.805 7.91992 106.754 7.66797 106.652 7.44922C106.551 7.22656 106.389 7.05273 106.166 6.92773C105.943 6.80273 105.648 6.74023 105.281 6.74023H103.746L104.08 5.46875H105.281C105.977 5.46875 106.555 5.57422 107.016 5.78516C107.48 5.99219 107.828 6.29492 108.059 6.69336C108.293 7.08789 108.41 7.56445 108.41 8.12305C108.41 8.61133 108.328 9.04297 108.164 9.41797C108.004 9.78906 107.744 10.0918 107.385 10.3262C107.025 10.5605 106.553 10.7168 105.967 10.7949L108.586 13.918V14H106.799ZM109.547 5.46875L109.248 6.55273H104.719L105.018 5.46875H109.547ZM110.333 14H116.393V12.632H112.661L114.389 11.24C115.805 10.148 116.309 9.272 116.309 8.18C116.309 6.656 115.061 5.612 113.429 5.612C112.097 5.612 111.101 6.2 110.321 7.22L111.293 8.12C111.893 7.4 112.517 6.956 113.381 6.956C114.125 6.956 114.785 7.436 114.785 8.216C114.785 8.888 114.413 9.512 113.369 10.352L110.333 12.776V14ZM120.623 14.144C122.507 14.144 123.791 13.04 123.791 11.336C123.791 9.68 122.531 8.744 121.067 8.744C120.359 8.744 119.819 8.96 119.399 9.248L119.471 7.124H123.347V5.756H118.067L117.947 10.136L118.967 10.568C119.435 10.208 119.999 9.992 120.647 9.992C121.631 9.992 122.291 10.556 122.291 11.396C122.291 12.2 121.655 12.848 120.647 12.848C119.819 12.848 119.063 12.428 118.427 11.804L117.539 12.872C118.271 13.64 119.279 14.144 120.623 14.144ZM128.571 14.144C130.683 14.144 132.171 12.38 132.171 9.872C132.171 7.376 130.683 5.612 128.571 5.612C126.447 5.612 124.947 7.376 124.947 9.872C124.947 12.38 126.447 14.144 128.571 14.144ZM128.571 12.776C127.347 12.776 126.483 11.576 126.483 9.872C126.483 8.168 127.347 6.98 128.571 6.98C129.783 6.98 130.647 8.168 130.647 9.872C130.647 11.576 129.783 12.776 128.571 12.776Z" fill="black"/>
<path d="M19 2H16V1C16 0.734784 15.8946 0.48043 15.7071 0.292893C15.5196 0.105357 15.2652 0 15 0H5C4.73478 0 4.48043 0.105357 4.29289 0.292893C4.10536 0.48043 4 0.734784 4 1V2H1C0.734784 2 0.48043 2.10536 0.292893 2.29289C0.105357 2.48043 0 2.73478 0 3V6C0 7.06087 0.421427 8.07828 1.17157 8.82843C1.92172 9.57857 2.93913 10 4 10H5.54C6.44453 11.0091 7.66406 11.6824 9 11.91V14H8C7.20435 14 6.44129 14.3161 5.87868 14.8787C5.31607 15.4413 5 16.2044 5 17V19C5 19.2652 5.10536 19.5196 5.29289 19.7071C5.48043 19.8946 5.73478 20 6 20H14C14.2652 20 14.5196 19.8946 14.7071 19.7071C14.8946 19.5196 15 19.2652 15 19V17C15 16.2044 14.6839 15.4413 14.1213 14.8787C13.5587 14.3161 12.7956 14 12 14H11V11.91C12.3359 11.6824 13.5555 11.0091 14.46 10H16C17.0609 10 18.0783 9.57857 18.8284 8.82843C19.5786 8.07828 20 7.06087 20 6V3C20 2.73478 19.8946 2.48043 19.7071 2.29289C19.5196 2.10536 19.2652 2 19 2ZM4 8C3.46957 8 2.96086 7.78929 2.58579 7.41421C2.21071 7.03914 2 6.53043 2 6V4H4V6C4.0022 6.68171 4.12056 7.35806 4.35 8H4ZM12 16C12.2652 16 12.5196 16.1054 12.7071 16.2929C12.8946 16.4804 13 16.7348 13 17V18H7V17C7 16.7348 7.10536 16.4804 7.29289 16.2929C7.48043 16.1054 7.73478 16 8 16H12ZM14 6C14 7.06087 13.5786 8.07828 12.8284 8.82843C12.0783 9.57857 11.0609 10 10 10C8.93913 10 7.92172 9.57857 7.17157 8.82843C6.42143 8.07828 6 7.06087 6 6V2H14V6ZM18 6C18 6.53043 17.7893 7.03914 17.4142 7.41421C17.0391 7.78929 16.5304 8 16 8H15.65C15.8794 7.35806 15.9978 6.68171 16 6V4H18V6Z" fill="black"/>
</svg>
