<svg width="14" height="14" viewBox="0 0 14 14" fill="none" xmlns="http://www.w3.org/2000/svg">
<path d="M13.4733 12.5266L11 10.0733C11.9601 8.87621 12.425 7.3568 12.2992 5.82747C12.1734 4.29814 11.4664 2.87512 10.3237 1.85103C9.18091 0.82694 7.6892 0.27961 6.15528 0.321583C4.62136 0.363557 3.16181 0.991644 2.07676 2.0767C0.991705 3.16175 0.363618 4.62129 0.321644 6.15522C0.279671 7.68914 0.827001 9.18085 1.85109 10.3236C2.87519 11.4664 4.2982 12.1733 5.82753 12.2991C7.35686 12.4249 8.87627 11.96 10.0733 10.9999L12.5267 13.4533C12.5886 13.5158 12.6624 13.5654 12.7436 13.5992C12.8249 13.633 12.912 13.6505 13 13.6505C13.088 13.6505 13.1751 13.633 13.2564 13.5992C13.3376 13.5654 13.4114 13.5158 13.4733 13.4533C13.5935 13.329 13.6607 13.1628 13.6607 12.9899C13.6607 12.817 13.5935 12.6509 13.4733 12.5266ZM6.33333 10.9999C5.41035 10.9999 4.5081 10.7262 3.74067 10.2135C2.97324 9.70068 2.3751 8.97185 2.02189 8.11913C1.66868 7.2664 1.57627 6.32809 1.75633 5.42285C1.9364 4.5176 2.38085 3.68608 3.0335 3.03344C3.68614 2.38079 4.51766 1.93634 5.42291 1.75627C6.32815 1.57621 7.26646 1.66862 8.11919 2.02183C8.97191 2.37504 9.70074 2.97318 10.2135 3.74061C10.7263 4.50804 11 5.41029 11 6.33327C11 7.57095 10.5083 8.75793 9.63316 9.6331C8.75799 10.5083 7.57101 10.9999 6.33333 10.9999Z" fill="#898A8D"/>
</svg>
