<svg width="14" height="14" viewBox="0 0 14 14" fill="none" xmlns="http://www.w3.org/2000/svg">
<path d="M2.33333 13.6667H10.82C11.2879 13.6666 11.7409 13.5024 12.1002 13.2028C12.4595 12.9031 12.7024 12.487 12.7867 12.0267L13.6333 7.36008C13.6861 7.07179 13.6748 6.77542 13.6004 6.49196C13.5259 6.2085 13.3901 5.94486 13.2024 5.71971C13.0148 5.49456 12.78 5.3134 12.5146 5.18904C12.2492 5.06469 11.9597 5.00018 11.6667 5.00008H8.62667L9 4.04675C9.15529 3.62934 9.207 3.18048 9.15071 2.7387C9.09442 2.29691 8.93179 1.87536 8.67679 1.51023C8.42179 1.1451 8.08202 0.847279 7.68663 0.642309C7.29123 0.437341 6.85202 0.331345 6.40667 0.333414C6.27843 0.333682 6.15298 0.370932 6.04538 0.440697C5.93778 0.510462 5.85258 0.609781 5.8 0.726748L3.9 5.00008H2.33333C1.8029 5.00008 1.29419 5.21079 0.919119 5.58587C0.544046 5.96094 0.333333 6.46965 0.333333 7.00008V11.6667C0.333333 12.1972 0.544046 12.7059 0.919119 13.081C1.29419 13.456 1.8029 13.6667 2.33333 13.6667ZM5 5.80675L6.81333 1.72675C6.99887 1.78289 7.17095 1.87642 7.31897 2.00158C7.46699 2.12674 7.58782 2.28089 7.67401 2.45452C7.7602 2.62815 7.80993 2.81758 7.82013 3.01116C7.83033 3.20474 7.8008 3.39835 7.73333 3.58008L7.38 4.53341C7.30471 4.73492 7.27929 4.95165 7.30592 5.1651C7.33254 5.37856 7.41041 5.5824 7.53289 5.75924C7.65537 5.93608 7.81881 6.08066 8.00927 6.18064C8.19973 6.28062 8.41156 6.33304 8.62667 6.33341H11.6667C11.7646 6.33326 11.8614 6.35468 11.9501 6.39616C12.0388 6.43764 12.1173 6.49816 12.18 6.57341C12.2442 6.64763 12.2913 6.73511 12.3178 6.82961C12.3443 6.92411 12.3496 7.02329 12.3333 7.12008L11.4867 11.7867C11.4583 11.9421 11.3757 12.0822 11.2536 12.1823C11.1315 12.2825 10.9779 12.336 10.82 12.3334H5V5.80675ZM1.66667 7.00008C1.66667 6.82327 1.7369 6.6537 1.86193 6.52868C1.98695 6.40365 2.15652 6.33341 2.33333 6.33341H3.66667V12.3334H2.33333C2.15652 12.3334 1.98695 12.2632 1.86193 12.1382C1.7369 12.0131 1.66667 11.8436 1.66667 11.6667V7.00008Z" fill="black"/>
</svg>
