<svg width="14" height="14" viewBox="0 0 14 14" fill="none" xmlns="http://www.w3.org/2000/svg">
<path d="M11.6667 0.333252H3.18C2.71213 0.333408 2.25912 0.497591 1.89979 0.797236C1.54046 1.09688 1.29755 1.51302 1.21333 1.97325L0.366666 6.63992C0.313912 6.92821 0.325163 7.22458 0.399623 7.50804C0.474083 7.7915 0.609932 8.05514 0.797557 8.28029C0.985182 8.50544 1.22 8.6866 1.48539 8.81096C1.75078 8.93531 2.04025 8.99982 2.33333 8.99992H5.37333L5 9.95325C4.84471 10.3707 4.793 10.8195 4.84929 11.2613C4.90558 11.7031 5.06821 12.1246 5.32321 12.4898C5.57821 12.8549 5.91798 13.1527 6.31337 13.3577C6.70877 13.5627 7.14798 13.6687 7.59333 13.6666C7.72157 13.6663 7.84702 13.6291 7.95462 13.5593C8.06222 13.4895 8.14742 13.3902 8.2 13.2733L10.1 8.99992H11.6667C12.1971 8.99992 12.7058 8.78921 13.0809 8.41413C13.456 8.03906 13.6667 7.53035 13.6667 6.99992V2.33325C13.6667 1.80282 13.456 1.29411 13.0809 0.919038C12.7058 0.543966 12.1971 0.333252 11.6667 0.333252ZM9 8.19325L7.18667 12.2733C7.00113 12.2171 6.82905 12.1236 6.68103 11.9984C6.53301 11.8733 6.41218 11.7191 6.32599 11.5455C6.2398 11.3719 6.19007 11.1824 6.17987 10.9888C6.16967 10.7953 6.1992 10.6016 6.26667 10.4199L6.62 9.46659C6.69529 9.26508 6.72071 9.04835 6.69408 8.8349C6.66746 8.62144 6.58959 8.4176 6.46711 8.24076C6.34463 8.06392 6.18119 7.91934 5.99073 7.81936C5.80027 7.71938 5.58844 7.66696 5.37333 7.66659H2.33333C2.23539 7.66674 2.13862 7.64532 2.0499 7.60384C1.96118 7.56236 1.88268 7.50184 1.82 7.42659C1.75578 7.35237 1.70873 7.26489 1.68223 7.17039C1.65572 7.07589 1.65041 6.97671 1.66667 6.87992L2.51333 2.21325C2.54173 2.05795 2.62432 1.91776 2.74641 1.81765C2.86849 1.71754 3.02214 1.66401 3.18 1.66659H9V8.19325ZM12.3333 6.99992C12.3333 7.17673 12.2631 7.3463 12.1381 7.47132C12.013 7.59635 11.8435 7.66659 11.6667 7.66659H10.3333V1.66659H11.6667C11.8435 1.66659 12.013 1.73682 12.1381 1.86185C12.2631 1.98687 12.3333 2.15644 12.3333 2.33325V6.99992Z" fill="black"/>
</svg>
